<?xml version="1.0" encoding="UTF-8"?>
<svg id="ITE_Logo_Black" xmlns="http://www.w3.org/2000/svg" xmlns:xlink="http://www.w3.org/1999/xlink" version="1.1" viewBox="0 0 2704.7 536.3">
  
  <defs>
    
    <linearGradient id="linear-gradient" x1="120.8" y1="536.3" x2="120.8" y2="230.2" gradientUnits="userSpaceOnUse">
      <stop offset="0" stop-color="#aab73d"></stop>
      <stop offset="0" stop-color="#aab73d"></stop>
      <stop offset=".2" stop-color="#aab73d"></stop>
      <stop offset=".3" stop-color="#9cae3e"></stop>
      <stop offset=".4" stop-color="#8aa241"></stop>
      <stop offset=".4" stop-color="#7e9b43"></stop>
      <stop offset=".5" stop-color="#7b9944"></stop>
      <stop offset=".8" stop-color="#7b9944"></stop>
      <stop offset="1" stop-color="#4f682f"></stop>
    </linearGradient>
    <linearGradient id="linear-gradient1" x1="398.7" y1="536.3" x2="398.7" y2="230.2" xlink:href="#linear-gradient"></linearGradient>
    <linearGradient id="linear-gradient2" x1="258.1" y1="0" x2="258.1" y2="318.3" xlink:href="#linear-gradient"></linearGradient>
    <linearGradient id="linear-gradient3" x1="164.4" y1="230.3" x2="164.4" y2="536.1" xlink:href="#linear-gradient"></linearGradient>
    <linearGradient id="linear-gradient4" x1="1825.1" y1="230.3" x2="1825.1" y2="536.1" gradientTransform="translate(2180.2) rotate(-180) scale(1 -1)" xlink:href="#linear-gradient"></linearGradient>
  </defs>
  <g id="horizontal">
    <g>
      <path d="M2688.7,119.8c-8.8,0-16,7.2-16,16s7.2,16,16,16,16-7.2,16-16-7.2-16-16-16ZM2698.5,145.6c-2.6,2.6-6.1,4.1-9.8,4.1s-7.2-1.4-9.8-4.1c-2.6-2.6-4.1-6.1-4.1-9.8s1.4-7.2,4.1-9.8c2.6-2.6,6.1-4.1,9.8-4.1s7.2,1.4,9.8,4.1c2.6,2.6,4.1,6.1,4.1,9.8s-1.4,7.2-4.1,9.8Z"></path>
      <path d="M2683.1,144v-16.4h5.9c1.8,0,3.2.5,4.2,1.4,1,.9,1.5,2.2,1.5,3.9s-.3,2.2-.9,3c-.6.8-1.4,1.4-2.5,1.8l3.8,6.3h-3.1l-3.5-5.8h-2.8v5.8h-2.7ZM2685.8,135.8h3.1c1,0,1.7-.3,2.3-.8.6-.5.8-1.2.8-2.2s-.3-1.6-.8-2.1c-.6-.5-1.3-.7-2.3-.7h-3v5.7Z"></path>
    </g>
    <g>
      <g>
        <g id="in_the_event">
          <g>
            <path d="M682,324.2h-20.1V119.8h20.1v204.4Z"></path>
            <path d="M913.3,299.8l-2.4-180h19.9v204.4h-24.1l-112.2-180.2,2.2,180.2h-19.8V119.8h24.1l112.2,180Z"></path>
            <path d="M1127.3,324.2h-20.1v-184.3h-40.9v-20.1h101.8v20.1h-40.9v184.3Z"></path>
            <path d="M1266.6,324.2h-20.2V119.8h20.2v91.7h97.1v-91.7h20.1v204.4h-20.1v-93.2h-97.1v93.2Z"></path>
            <path d="M1499.7,211.5h85.9v20.2h-85.9v72.7h85.9v19.8h-106.1V119.8h106.1v20.1h-85.9v71.6Z"></path>
          </g>
          <g>
            <path d="M1748.4,208.4h83v19.5h-83v70.3h83v19.1h-102.5V119.8h102.5v19.4h-83v69.2Z"></path>
            <path d="M1900,119.8h19.4l62.5,168.3,62.8-168.3h19.4l-74.3,197.5h-15.3l-74.4-197.5Z"></path>
            <path d="M2153.4,208.4h83v19.5h-83v70.3h83v19.1h-102.5V119.8h102.5v19.4h-83v69.2Z"></path>
            <path d="M2460,293.7l-2.3-173.9h19.3v197.5h-23.3l-108.4-174.1,2.2,174.1h-19.1V119.8h23.3l108.4,173.9Z"></path>
            <path d="M2611.8,317.3h-19.4v-178.1h-39.5v-19.4h98.3v19.4h-39.5v178.1Z"></path>
          </g>
        </g>
        <g id="services" class="st6">
          <g>
            <path d="M746.9,435.4v-42.6h14.8c12.9,0,20.8,10.2,20.8,21.3s-8.2,21.3-21.7,21.3h-13.9ZM760.5,429.7c9.9,0,15.7-5.8,15.7-15.5s-6.7-15.7-15.4-15.7h-7.7v31.2h7.4Z"></path>
            <path d="M789,435.4v-42.6h23v5.7h-16.8v12.6h16.8v5.7h-16.8v13h16.8v5.7h-23Z"></path>
            <path d="M835.4,403.8c0-3.9-2.5-6.2-6-6.2s-5.7,2.7-5.7,5.8,2,4.7,6.2,6c9.2,2.9,12.6,6.4,12.6,13.8s-5.5,12.9-13.1,12.9-13-5.4-13.1-13.4h6.2c0,4.6,2.8,7.7,6.9,7.7s6.9-3,6.9-7.2-1.4-5.1-5.9-6.6c-10.5-3.6-12.8-7-12.8-13.1s5.4-11.6,11.9-11.6,12.1,4.4,12.2,11.9h-6.2Z"></path>
            <path d="M848.3,435.4v-42.6h6.2v42.6h-6.2Z"></path>
            <path d="M877.9,419.9v-5.7h27c-.4,14.2-11.1,22-22.5,22s-21.4-10-21.4-21.5,10.6-22.7,21.4-22.7,15.2,3.9,19.5,11.5h-7.3c-3.6-4.1-7.3-5.8-12-5.8-8.3,0-15.4,7.8-15.4,16.2s7.1,16.6,15.7,16.6,12.2-3.7,14.9-10.6h-19.9Z"></path>
            <path d="M938.4,435.4l-21.1-33h-.1v33h-6.2v-42.6h6.8l20.7,32.4h.1v-32.4h6.2v42.6h-6.5Z"></path>
            <path d="M1065.9,435.4v-42.6h14.8c12.9,0,20.8,10.2,20.8,21.3s-8.2,21.3-21.7,21.3h-13.9ZM1079.6,429.7c9.9,0,15.7-5.8,15.7-15.5s-6.7-15.7-15.4-15.7h-7.7v31.2h7.4Z"></path>
            <path d="M1108.1,435.4v-42.6h23v5.7h-16.8v12.6h16.8v5.7h-16.8v13h16.8v5.7h-23Z"></path>
            <path d="M1177.8,424.8c-4.3,7.4-11.2,11.3-19.7,11.3s-21.5-10.6-21.5-22,10.1-22.3,21.6-22.3,15.6,3.7,19.9,11.7h-7.5c-3.2-3.7-7-6-12-6-8.9,0-15.8,7.5-15.8,16s6.7,16.8,15.5,16.8,8.4-1.7,11.9-5.6h7.7Z"></path>
            <path d="M1203.4,436.2c-11.8,0-21.8-10.1-21.8-21.7s10-22.6,22-22.6,22.4,10,22.4,21.8-10,22.4-22.5,22.4ZM1219.7,414.2c0-8.8-6.7-16.5-15.7-16.5s-16.2,9.9-16.2,16.2,6.2,16.6,16,16.6,16-8.5,16-16.3Z"></path>
            <path d="M1252.2,435.4l-14.1-19.8h-.1v19.8h-6.2v-42.6h13.7c10.3,0,14.8,5.4,14.8,14.2s-6.2,12.4-12.2,12.6l11.9,15.9h-7.8ZM1242.6,414.8c7.3,0,11.5-2.8,11.5-8.4s-3.9-8-9.4-8h-6.6v16.3h4.6Z"></path>
            <path d="M1385,435.4v-42.6h21.5v5.7h-15.3v12.8h15.3v5.7h-15.3v18.4h-6.2Z"></path>
            <path d="M1413.6,435.4v-42.6h6.2v36.9h14.8v5.7h-21Z"></path>
            <path d="M1458.6,436.2c-11.8,0-21.8-10.1-21.8-21.7s10-22.6,22-22.6,22.4,10,22.4,21.8-10,22.4-22.5,22.4ZM1474.9,414.2c0-8.8-6.7-16.5-15.7-16.5s-16.2,9.9-16.2,16.2,6.2,16.6,16,16.6,16-8.5,16-16.3Z"></path>
            <path d="M1507.5,435.4l-14.1-19.8h-.1v19.8h-6.2v-42.6h13.7c10.3,0,14.8,5.4,14.8,14.2s-6.2,12.4-12.2,12.6l11.9,15.9h-7.8ZM1497.9,414.8c7.3,0,11.5-2.8,11.5-8.4s-3.9-8-9.4-8h-6.6v16.3h4.6Z"></path>
            <path d="M1549.7,435.4l-4.7-12.6h-15.3l-4.7,12.6h-6.6l16.2-42.6h5.6l16.2,42.6h-6.6ZM1537.4,400.8h-.1l-5.5,16.3h11l-5.4-16.3Z"></path>
            <path d="M1561.5,435.4v-42.6h6.2v36.9h14.8v5.7h-21Z"></path>
            <path d="M1704.1,435.4v-42.6h14.8c12.9,0,20.8,10.2,20.8,21.3s-8.2,21.3-21.7,21.3h-13.9ZM1717.7,429.7c9.9,0,15.7-5.8,15.7-15.5s-6.7-15.7-15.4-15.7h-7.7v31.2h7.4Z"></path>
            <path d="M1746.8,435.4v-42.6h6.2v42.6h-6.2Z"></path>
            <path d="M1777.5,403.8c0-3.9-2.5-6.2-6-6.2s-5.7,2.7-5.7,5.8,2,4.7,6.2,6c9.2,2.9,12.6,6.4,12.6,13.8s-5.5,12.9-13.1,12.9-13-5.4-13.1-13.4h6.2c0,4.6,2.8,7.7,6.9,7.7s6.9-3,6.9-7.2-1.4-5.1-5.9-6.6c-10.5-3.6-12.8-7-12.8-13.1s5.4-11.6,11.9-11.6,12.1,4.4,12.2,11.9h-6.2Z"></path>
            <path d="M1789.8,435.4v-42.6h12.4c9.2,0,15,4.6,15,12.9s-5.7,12.9-14.9,12.9h-6.2v16.8h-6.2ZM1802.2,412.9c5.5,0,8.8-2.6,8.8-7.2s-3.4-7.2-8.8-7.2h-6.1v14.4h6.2Z"></path>
            <path d="M1822.8,435.4v-42.6h6.2v36.9h14.8v5.7h-21Z"></path>
            <path d="M1877.4,435.4l-4.7-12.6h-15.3l-4.7,12.6h-6.6l16.2-42.6h5.6l16.2,42.6h-6.6ZM1865.1,400.8h-.1l-5.5,16.3h11l-5.4-16.3Z"></path>
            <path d="M1894.1,435.4v-15.4l-13.3-27.2h7l9.4,20,9.3-20h6.9l-13.1,27.2v15.4h-6.2Z"></path>
            <path d="M2023.2,435.4v-42.6h23v5.7h-16.8v12.6h16.8v5.7h-16.8v13h16.8v5.7h-23Z"></path>
            <path d="M2067.2,435.4l-17.2-42.6h6.7l12.4,32,12.4-32h6.6l-17.1,42.6h-3.7Z"></path>
            <path d="M2092.5,435.4v-42.6h23v5.7h-16.8v12.6h16.8v5.7h-16.8v13h16.8v5.7h-23Z"></path>
            <path d="M2150.5,435.4l-21.1-33h-.1v33h-6.2v-42.6h6.8l20.7,32.4h.1v-32.4h6.2v42.6h-6.5Z"></path>
            <path d="M2169.8,435.4v-36.9h-8.2v-5.7h22.6v5.7h-8.2v36.9h-6.2Z"></path>
            <path d="M2205.4,435.4v-42.6h12.4c9.2,0,15,4.6,15,12.9s-5.7,12.9-14.9,12.9h-6.2v16.8h-6.2ZM2217.8,412.9c5.5,0,8.8-2.6,8.8-7.2s-3.4-7.2-8.8-7.2h-6.1v14.4h6.2Z"></path>
            <path d="M2258,435.4l-14.1-19.8h-.1v19.8h-6.2v-42.6h13.7c10.3,0,14.8,5.4,14.8,14.2s-6.2,12.4-12.2,12.6l11.9,15.9h-7.8ZM2248.4,414.8c7.3,0,11.5-2.8,11.5-8.4s-3.9-8-9.4-8h-6.6v16.3h4.6Z"></path>
            <path d="M2292.2,436.2c-11.8,0-21.8-10.1-21.8-21.7s10-22.6,22-22.6,22.4,10,22.4,21.8-10,22.4-22.5,22.4ZM2308.5,414.2c0-8.8-6.7-16.5-15.7-16.5s-16.2,9.9-16.2,16.2,6.2,16.6,16,16.6,16-8.5,16-16.3Z"></path>
            <path d="M2320.6,435.4v-42.6h14.8c12.9,0,20.8,10.2,20.8,21.3s-8.2,21.3-21.7,21.3h-13.9ZM2334.3,429.7c9.9,0,15.7-5.8,15.7-15.5s-6.7-15.7-15.4-15.7h-7.7v31.2h7.4Z"></path>
            <path d="M2385.6,392.8h6.2v29.2c0,8.9-6.3,14.3-14.3,14.3s-14.3-5.4-14.3-14.3v-29.2h6.2v28.7c0,5.3,3,9,8.1,9s8.1-3.8,8.1-9v-28.7Z"></path>
            <path d="M2439.5,424.8c-4.3,7.4-11.2,11.3-19.7,11.3s-21.5-10.6-21.5-22,10.1-22.3,21.6-22.3,15.6,3.7,19.9,11.7h-7.5c-3.2-3.7-7-6-12-6-8.9,0-15.8,7.5-15.8,16s6.7,16.8,15.5,16.8,8.4-1.7,11.9-5.6h7.7Z"></path>
            <path d="M2449.7,435.4v-36.9h-8.2v-5.7h22.6v5.7h-8.2v36.9h-6.2Z"></path>
            <path d="M2468.9,435.4v-42.6h6.2v42.6h-6.2Z"></path>
            <path d="M2503.4,436.2c-11.8,0-21.8-10.1-21.8-21.7s10-22.6,22-22.6,22.4,10,22.4,21.8-10,22.4-22.5,22.4ZM2519.7,414.2c0-8.8-6.7-16.5-15.7-16.5s-16.2,9.9-16.2,16.2,6.2,16.6,16,16.6,16-8.5,16-16.3Z"></path>
            <path d="M2559.9,435.4l-21.1-33h-.1v33h-6.2v-42.6h6.8l20.7,32.4h.1v-32.4h6.2v42.6h-6.5Z"></path>
          </g>
          <polygon points="1121.8 388.5 1115.6 388.5 1124.5 380.2 1130.7 380.2 1121.8 388.5"></polygon>
        </g>
        <g id="services1" data-name="services">
          <g>
            <path d="M746.9,434.5v-40.4h14c12.2,0,19.7,9.7,19.7,20.2s-7.8,20.2-20.6,20.2h-13.2ZM759.8,429.1c9.3,0,14.9-5.5,14.9-14.7s-6.4-14.9-14.6-14.9h-7.3v29.6h7Z"></path>
            <path d="M786.8,434.5v-40.4h21.8v5.4h-15.9v11.9h15.9v5.4h-15.9v12.3h15.9v5.4h-21.8Z"></path>
            <path d="M830.7,404.5c0-3.7-2.3-5.8-5.7-5.8s-5.4,2.6-5.4,5.5,1.9,4.5,5.8,5.7c8.7,2.8,12,6.1,12,13s-5.2,12.2-12.4,12.2-12.3-5.1-12.4-12.7h5.9c0,4.4,2.6,7.3,6.5,7.3s6.5-2.8,6.5-6.8-1.3-4.8-5.6-6.3c-10-3.4-12.2-6.7-12.2-12.4s5.1-11,11.3-11,11.5,4.2,11.6,11.2h-5.9Z"></path>
            <path d="M843,434.5v-40.4h5.9v40.4h-5.9Z"></path>
            <path d="M871,419.8v-5.4h25.5c-.4,13.4-10.5,20.8-21.3,20.8s-20.2-9.5-20.2-20.4,10-21.5,20.2-21.5,14.4,3.7,18.5,10.9h-6.9c-3.4-3.9-6.9-5.5-11.4-5.5-7.9,0-14.6,7.4-14.6,15.4s6.7,15.7,14.8,15.7,11.5-3.5,14.1-10h-18.8Z"></path>
            <path d="M928.3,434.5l-20-31.2h-.1v31.2h-5.9v-40.4h6.4l19.6,30.7h.1v-30.7h5.9v40.4h-6.1Z"></path>
          </g>
          <g>
            <path d="M1254.4,434.5v-40.4h20.4v5.4h-14.5v12.1h14.5v5.4h-14.5v17.5h-5.9Z"></path>
            <path d="M1281.5,434.5v-40.4h5.9v35h14v5.4h-19.9Z"></path>
            <path d="M1324.2,435.2c-11.2,0-20.7-9.6-20.7-20.5s9.5-21.4,20.8-21.4,21.2,9.4,21.2,20.7-9.4,21.2-21.3,21.2ZM1339.6,414.4c0-8.4-6.3-15.7-14.8-15.7s-15.4,9.4-15.4,15.4,5.9,15.7,15.1,15.7,15.1-8.1,15.1-15.4Z"></path>
            <path d="M1370.5,434.5l-13.3-18.7h-.1v18.7h-5.9v-40.4h12.9c9.7,0,14,5.1,14,13.4s-5.9,11.7-11.6,11.9l11.3,15.1h-7.4ZM1361.3,414.9c6.9,0,10.9-2.7,10.9-7.9s-3.7-7.5-9-7.5h-6.2v15.4h4.3Z"></path>
            <path d="M1410.4,434.5l-4.5-11.9h-14.5l-4.5,11.9h-6.2l15.3-40.4h5.3l15.3,40.4h-6.3ZM1398.8,401.7h-.1l-5.2,15.4h10.4l-5.1-15.4Z"></path>
            <path d="M1421.6,434.5v-40.4h5.9v35h14v5.4h-19.9Z"></path>
          </g>
          <g>
            <path d="M1509.5,434.5v-40.4h14c12.2,0,19.7,9.7,19.7,20.2s-7.8,20.2-20.6,20.2h-13.2ZM1522.4,429.1c9.3,0,14.9-5.5,14.9-14.7s-6.4-14.9-14.6-14.9h-7.3v29.6h7Z"></path>
            <path d="M1550,434.5v-40.4h5.9v40.4h-5.9Z"></path>
            <path d="M1579,404.5c0-3.7-2.3-5.8-5.7-5.8s-5.4,2.6-5.4,5.5,1.9,4.5,5.8,5.7c8.7,2.8,12,6.1,12,13s-5.2,12.2-12.4,12.2-12.3-5.1-12.4-12.7h5.9c0,4.4,2.6,7.3,6.5,7.3s6.5-2.8,6.5-6.8-1.3-4.8-5.6-6.3c-10-3.4-12.2-6.7-12.2-12.4s5.1-11,11.3-11,11.5,4.2,11.6,11.2h-5.9Z"></path>
            <path d="M1590.7,434.5v-40.4h11.7c8.7,0,14.2,4.3,14.2,12.2s-5.4,12.2-14.1,12.2h-5.9v15.9h-5.9ZM1602.4,413.1c5.2,0,8.3-2.5,8.3-6.8s-3.2-6.8-8.4-6.8h-5.8v13.6h5.8Z"></path>
            <path d="M1622,434.5v-40.4h5.9v35h14v5.4h-19.9Z"></path>
            <path d="M1673.6,434.5l-4.5-11.9h-14.5l-4.5,11.9h-6.2l15.3-40.4h5.3l15.3,40.4h-6.3ZM1662,401.7h-.1l-5.2,15.4h10.4l-5.1-15.4Z"></path>
            <path d="M1689.5,434.5v-14.6l-12.6-25.8h6.6l8.9,18.9,8.8-18.9h6.5l-12.4,25.8v14.6h-5.9Z"></path>
          </g>
          <g>
            <path d="M1002.4,434.5v-40.4h14c12.2,0,19.7,9.7,19.7,20.2s-7.8,20.2-20.6,20.2h-13.2ZM1015.3,429.1c9.3,0,14.9-5.5,14.9-14.7s-6.4-14.9-14.6-14.9h-7.3v29.6h7Z"></path>
            <path d="M1042.3,434.5v-40.4h21.8v5.4h-15.9v11.9h15.9v5.4h-15.9v12.3h15.9v5.4h-21.8Z"></path>
            <path d="M1108.3,424.5c-4.1,7-10.6,10.8-18.7,10.8s-20.4-10-20.4-20.8,9.6-21.1,20.5-21.1,14.8,3.5,18.9,11.1h-7.1c-3.1-3.5-6.6-5.7-11.4-5.7-8.5,0-15,7.1-15,15.2s6.4,15.9,14.7,15.9,8-1.6,11.2-5.3h7.3Z"></path>
            <path d="M1132.6,435.2c-11.2,0-20.7-9.6-20.7-20.5s9.5-21.4,20.8-21.4,21.2,9.4,21.2,20.7-9.4,21.2-21.3,21.2ZM1148,414.4c0-8.4-6.3-15.7-14.8-15.7s-15.4,9.4-15.4,15.4,5.9,15.7,15.1,15.7,15.1-8.1,15.1-15.4Z"></path>
            <path d="M1178.9,434.5l-13.3-18.7h-.1v18.7h-5.9v-40.4h12.9c9.7,0,14,5.1,14,13.4s-5.9,11.7-11.6,11.9l11.3,15.1h-7.4ZM1169.7,414.9c6.9,0,10.9-2.7,10.9-7.9s-3.7-7.5-9-7.5h-6.2v15.4h4.3Z"></path>
            <polygon points="1055.3 390 1049.4 390 1057.8 382.1 1063.7 382.1 1055.3 390"></polygon>
          </g>
          <g>
            <path d="M1775.8,434.5v-40.4h21.8v5.4h-15.9v11.9h15.9v5.4h-15.9v12.3h15.9v5.4h-21.8Z"></path>
            <path d="M1817.5,434.5l-16.3-40.4h6.3l11.7,30.3,11.7-30.3h6.2l-16.2,40.4h-3.5Z"></path>
            <path d="M1841.5,434.5v-40.4h21.8v5.4h-15.9v11.9h15.9v5.4h-15.9v12.3h15.9v5.4h-21.8Z"></path>
            <path d="M1896.4,434.5l-20-31.2h-.1v31.2h-5.9v-40.4h6.4l19.6,30.7h.1v-30.7h5.9v40.4h-6.1Z"></path>
            <path d="M1914.7,434.5v-35h-7.8v-5.4h21.4v5.4h-7.7v35h-5.9Z"></path>
            <path d="M1948.4,434.5v-40.4h11.7c8.7,0,14.2,4.3,14.2,12.2s-5.4,12.2-14.1,12.2h-5.9v15.9h-5.9ZM1960.2,413.1c5.2,0,8.3-2.5,8.3-6.8s-3.2-6.8-8.4-6.8h-5.8v13.6h5.8Z"></path>
            <path d="M1998.2,434.5l-13.3-18.7h-.1v18.7h-5.9v-40.4h12.9c9.7,0,14,5.1,14,13.4s-5.9,11.7-11.6,11.9l11.3,15.1h-7.4ZM1989.1,414.9c6.9,0,10.9-2.7,10.9-7.9s-3.7-7.5-9-7.5h-6.2v15.4h4.3Z"></path>
            <path d="M2030.6,435.2c-11.2,0-20.7-9.6-20.7-20.5s9.5-21.4,20.8-21.4,21.2,9.4,21.2,20.7-9.4,21.2-21.3,21.2ZM2046,414.4c0-8.4-6.3-15.7-14.8-15.7s-15.4,9.4-15.4,15.4,5.9,15.7,15.1,15.7,15.1-8.1,15.1-15.4Z"></path>
            <path d="M2057.5,434.5v-40.4h14c12.2,0,19.7,9.7,19.7,20.2s-7.8,20.2-20.6,20.2h-13.2ZM2070.4,429.1c9.3,0,14.9-5.5,14.9-14.7s-6.4-14.9-14.6-14.9h-7.3v29.6h7Z"></path>
            <path d="M2119.1,394.1h5.9v27.6c0,8.5-6,13.5-13.5,13.5s-13.5-5.1-13.5-13.5v-27.6h5.9v27.2c0,5,2.8,8.6,7.6,8.6s7.6-3.6,7.6-8.6v-27.2Z"></path>
            <path d="M2170.1,424.5c-4.1,7-10.6,10.8-18.7,10.8s-20.4-10-20.4-20.8,9.6-21.1,20.5-21.1,14.8,3.5,18.9,11.1h-7.1c-3.1-3.5-6.6-5.7-11.4-5.7-8.5,0-15,7.1-15,15.2s6.4,15.9,14.7,15.9,8-1.6,11.2-5.3h7.3Z"></path>
            <path d="M2179.8,434.5v-35h-7.8v-5.4h21.4v5.4h-7.7v35h-5.9Z"></path>
            <path d="M2198,434.5v-40.4h5.9v40.4h-5.9Z"></path>
            <path d="M2230.7,435.2c-11.2,0-20.7-9.6-20.7-20.5s9.5-21.4,20.8-21.4,21.2,9.4,21.2,20.7-9.4,21.2-21.3,21.2ZM2246.1,414.4c0-8.4-6.3-15.7-14.8-15.7s-15.4,9.4-15.4,15.4,5.9,15.7,15.1,15.7,15.1-8.1,15.1-15.4Z"></path>
            <path d="M2284.2,434.5l-20-31.2h-.1v31.2h-5.9v-40.4h6.4l19.6,30.7h.1v-30.7h5.9v40.4h-6.1Z"></path>
            <path d="M2321,434.6v-11h-10.9v-5.7h10.9v-11h5.7v11h10.9v5.7h-10.9v11h-5.7Z"></path>
            <path d="M2379.3,434.6l-13.4-18.8h-.1v18.8h-5.9v-40.5h13c9.7,0,14.1,5.1,14.1,13.5s-5.9,11.8-11.6,11.9l11.3,15.1h-7.4ZM2370.2,415c6.9,0,10.9-2.7,10.9-7.9s-3.7-7.6-9-7.6h-6.2v15.5h4.3Z"></path>
            <path d="M2392.5,434.6v-40.5h21.8v5.4h-15.9v11.9h15.9v5.4h-15.9v12.3h15.9v5.4h-21.8Z"></path>
            <path d="M2447.5,434.6l-20-31.3h-.1v31.3h-5.9v-40.5h6.5l19.7,30.8h.1v-30.8h5.9v40.5h-6.1Z"></path>
            <path d="M2465.9,434.6v-35.1h-7.8v-5.4h21.5v5.4h-7.8v35.1h-5.9Z"></path>
            <path d="M2509.2,434.6l-4.5-11.9h-14.6l-4.5,11.9h-6.2l15.4-40.5h5.3l15.4,40.5h-6.3ZM2497.5,401.7h-.1l-5.2,15.5h10.5l-5.1-15.5Z"></path>
            <path d="M2520.5,434.6v-40.5h5.9v35.1h14.1v5.4h-20Z"></path>
            <path d="M2559.6,404.6c0-3.7-2.4-5.9-5.7-5.9s-5.4,2.6-5.4,5.5,1.9,4.5,5.9,5.7c8.8,2.8,12,6.1,12,13.1s-5.3,12.3-12.4,12.3-12.4-5.1-12.5-12.8h5.9c0,4.4,2.6,7.3,6.6,7.3s6.5-2.8,6.5-6.8-1.3-4.8-5.6-6.3c-10-3.4-12.2-6.7-12.2-12.4s5.1-11.1,11.3-11.1,11.5,4.2,11.6,11.3h-5.9Z"></path>
          </g>
        </g>
      </g>
      <g>
        <path d="M1544.4,533.2v-42.2h22.7v5.6h-16.6v12.4h16.6v5.6h-16.6v12.8h16.6v5.6h-22.7Z"></path>
        <path d="M1590.3,502c0-3.8-2.5-6.1-5.9-6.1s-5.6,2.7-5.6,5.8,2,4.7,6.1,6c9.1,2.9,12.5,6.3,12.5,13.6s-5.5,12.8-12.9,12.8-12.9-5.4-13-13.3h6.2c0,4.6,2.7,7.6,6.8,7.6s6.8-3,6.8-7.1-1.4-5-5.9-6.6c-10.4-3.5-12.7-7-12.7-12.9s5.3-11.5,11.8-11.5,12,4.4,12.1,11.7h-6.2Z"></path>
        <path d="M1607.3,533.2v-36.5h-8.1v-5.6h22.3v5.6h-8.1v36.5h-6.2Z"></path>
        <path d="M1621.7,533.2v-7h5.9v7h-5.9Z"></path>
        <path d="M1647.7,533.2v-5l16.9-17.2c3.4-3.5,3.5-6,3.5-7.4,0-4.3-3-8-7.2-8s-7.5,3.6-7.5,9.1v.8h-5.9v-.7c0-9.5,6.7-14.5,13.3-14.5s13.3,6.1,13.3,13.6-1.3,7.1-5.9,11.9l-11.7,12h17.7v5.4h-26.4Z"></path>
        <path d="M1706.5,520.5c0,9.2-7.7,13.5-13.7,13.5s-13.6-4.6-13.6-14.1v-15.7c0-8.9,6.8-14.1,13.8-14.1s13.5,6.2,13.5,13.7v16.6ZM1700.6,503.9c0-4.2-2.4-8.3-7.7-8.3s-7.8,3.8-7.8,8.3v15.8c0,4.8,2.6,9,7.8,9s7.7-3,7.7-7.8v-16.9Z"></path>
        <path d="M1738.1,520.5c0,9.2-7.7,13.5-13.7,13.5s-13.6-4.6-13.6-14.1v-15.7c0-8.9,6.8-14.1,13.8-14.1s13.5,6.2,13.5,13.7v16.6ZM1732.2,503.9c0-4.2-2.4-8.3-7.7-8.3s-7.8,3.8-7.8,8.3v15.8c0,4.8,2.6,9,7.8,9s7.7-3,7.7-7.8v-16.9Z"></path>
        <path d="M1746.7,533.2l15.9-36.8h-18.3v-5.4h24.5v5.4l-15.4,36.8h-6.6Z"></path>
      </g>
    </g>
    <g>
      <g>
        <path class="st4" d="M106.4,230.5h-19.2c7.7,4.7,15.6,10,23.6,16,24.2,18.1,43.4,38,56.9,59.3,12.4,19.6,20,40.3,22.8,61.8.8,4.7,1.1,8.5,1.1,11v2.5c.1,3.2,0,6.5,0,9.8l.8,64.5c-19.9-12.5-38.8-26.6-54.8-41.9-25.7-24.6-46.4-52.8-61.4-83.8-8.6-17.9-14.4-34.7-18.3-49.3,0,0,32.8-7.4,69.4,2.5-7.9-7.8-31-34-65.4-47.2C42.2,228.2,0,230.5,0,230.5c0,0-3.4,207.8,241.6,305.8v-157.7c0-35.5-28.2-148.1-135.1-148.1Z"></path>
        <path class="st1" d="M413,230.5h19.2c-7.7,4.7-15.6,10-23.6,16-24.2,18.1-43.4,38-56.9,59.3-12.4,19.6-20,40.3-22.8,61.8-.8,4.7-1.1,8.5-1.1,11v2.5c-.1,3.2,0,6.5,0,9.8l-.8,64.4c19.9-12.5,38.8-26.5,54.8-41.7,25.7-24.6,46.4-52.8,61.4-83.8,8.6-17.9,14.4-34.7,18.3-49.3,0,0-32.8-7.4-69.4,2.5,7.9-7.8,31-34,65.4-47.2,19.8-7.6,62-5.3,62-5.3,0,0,3.4,207.8-241.6,305.8,0,0,0-122.2,0-157.7,0-35.5,28.2-148.1,135.1-148.1Z"></path>
        <path class="st0" d="M258.1,50c38.2,0,69.2,26.9,69.2,60s-6.5,26.8-12,33.7l-13.3,16.9c-2.3,2.7-4.8,5.5-7.5,8.4-1,1.1-2.4,2.5-4,4.2-7.5,7.7-19.2,19.7-31.8,36.2-12.5-16.5-24.3-28.5-31.8-36.2-1.6-1.7-3-3.1-4-4.2-5.9-6.3-11.1-12.5-14.4-16.6l-1.5-1.9-1.7-1.7c-7.5-7.7-16.4-20.6-16.4-38.7,0-33.1,31.1-60,69.2-60M258.1,0c-65.9,0-119.2,49.3-119.2,110s11.6,54.1,30.6,73.6c4.3,5.3,10.2,12.4,17,19.7,13.8,14.6,53,50,72.2,115,19.2-65,58.4-100.4,72.2-115,13.8-14.6,23.9-28.6,23.9-28.6h-.2c14.3-18.1,22.8-40.5,22.8-64.6,0-60.8-53.4-110-119.2-110h0Z"></path>
        <path class="st2" d="M167.7,305.6c12.4,19.6,20,40.3,22.8,61.8.8,4.7,1.1,8.5,1.1,11v2.5c.1,3.2,0,6.5,0,9.8v46.4c0,67.7,31.3,90.2,44.4,96.7,1.9.8,3.7,1.5,5.6,2.3v-157.7c0-35.5-28.2-148.1-135.1-148.1h-19.2c7.7,4.7,15.6,10,23.6,16,24.2,18.1,43.4,38,56.9,59.3Z"></path>
        <path class="st3" d="M351.8,305.6c-12.4,19.6-20,40.3-22.8,61.8-.8,4.7-1.1,8.5-1.1,11v2.5c-.1,3.2,0,6.5,0,9.8v46.4c0,67.7-31.3,90.2-44.4,96.7-1.9.8-3.7,1.5-5.6,2.3,0,0,0-122.2,0-157.7,0-35.5,28.2-148.1,135.1-148.1h19.2c-7.7,4.7-15.6,10-23.6,16-24.2,18.1-43.4,38-56.9,59.3Z"></path>
      </g>
      <g>
        <path class="st5" d="M405.1,504.3c-8.8,0-16,7.2-16,16s7.2,16,16,16,16-7.2,16-16-7.2-16-16-16ZM414.9,530.1c-2.6,2.6-6.1,4.1-9.8,4.1s-7.2-1.4-9.8-4.1c-2.6-2.6-4.1-6.1-4.1-9.8s1.4-7.2,4.1-9.8c2.6-2.6,6.1-4.1,9.8-4.1s7.2,1.4,9.8,4.1c2.6,2.6,4.1,6.1,4.1,9.8s-1.4,7.2-4.1,9.8Z"></path>
        <path class="st5" d="M399.5,528.5v-16.4h5.9c1.8,0,3.2.5,4.2,1.4,1,.9,1.5,2.2,1.5,3.9s-.3,2.2-.9,3c-.6.8-1.4,1.4-2.5,1.8l3.8,6.3h-3.1l-3.5-5.8h-2.8v5.8h-2.7ZM402.2,520.3h3.1c1,0,1.7-.3,2.3-.8.6-.5.8-1.2.8-2.2s-.3-1.6-.8-2.1c-.6-.5-1.3-.7-2.3-.7h-3v5.7Z"></path>
      </g>
    </g>
  </g>
</svg>