<?xml version="1.0" encoding="UTF-8"?>
<svg id="ITE_Logo_Black" xmlns="http://www.w3.org/2000/svg" xmlns:xlink="http://www.w3.org/1999/xlink" version="1.1" viewBox="0 0 1000 1000">
  
  <defs>
    
    <linearGradient id="linear-gradient" x1="320.7" y1="725" x2="320.7" y2="349.4" gradientUnits="userSpaceOnUse">
      <stop offset="0" stop-color="#aab73d"></stop>
      <stop offset="0" stop-color="#aab73d"></stop>
      <stop offset=".2" stop-color="#aab73d"></stop>
      <stop offset=".3" stop-color="#9cae3e"></stop>
      <stop offset=".4" stop-color="#8aa241"></stop>
      <stop offset=".4" stop-color="#7e9b43"></stop>
      <stop offset=".5" stop-color="#7b9944"></stop>
      <stop offset=".8" stop-color="#7b9944"></stop>
      <stop offset="1" stop-color="#4f682f"></stop>
    </linearGradient>
    <linearGradient id="linear-gradient1" x1="661.7" y1="725" x2="661.7" y2="349.4" xlink:href="#linear-gradient"></linearGradient>
    <linearGradient id="linear-gradient2" x1="489.2" y1="67" x2="489.2" y2="457.6" xlink:href="#linear-gradient"></linearGradient>
    <linearGradient id="linear-gradient3" x1="374.2" y1="349.6" x2="374.2" y2="724.8" xlink:href="#linear-gradient"></linearGradient>
    <linearGradient id="linear-gradient4" x1="-3982.8" y1="349.6" x2="-3982.8" y2="724.8" gradientTransform="translate(-3374.6) rotate(-180) scale(1 -1)" xlink:href="#linear-gradient"></linearGradient>
  </defs>
  <g>
    <path d="M931.9,788.7c-3.7,0-6.7,3-6.7,6.7s3,6.7,6.7,6.7,6.7-3,6.7-6.7-3-6.7-6.7-6.7ZM936,799.5c-1.1,1.1-2.6,1.7-4.1,1.7s-3-.6-4.1-1.7c-1.1-1.1-1.7-2.6-1.7-4.1s.6-3,1.7-4.1c1.1-1.1,2.6-1.7,4.1-1.7s3,.6,4.1,1.7c1.1,1.1,1.7,2.6,1.7,4.1s-.6,3-1.7,4.1Z"></path>
    <path d="M929.5,798.9v-6.9h2.5c.7,0,1.3.2,1.8.6.4.4.7.9.7,1.6s-.1.9-.4,1.3c-.3.3-.6.6-1,.7l1.6,2.7h-1.3l-1.5-2.4h-1.2v2.4h-1.1ZM930.7,795.4h1.3c.4,0,.7-.1,1-.3.2-.2.4-.5.4-.9s-.1-.7-.4-.9c-.2-.2-.6-.3-1-.3h-1.3v2.4Z"></path>
  </g>
  <g id="in_the_event">
    <g>
      <path d="M89.9,874.7h-8.4v-86h8.4v86Z"></path>
      <path d="M187.3,864.4l-1-75.7h8.4v86h-10.2l-47.2-75.8.9,75.8h-8.3v-86h10.2l47.2,75.7Z"></path>
      <path d="M277.3,874.7h-8.4v-77.5h-17.2v-8.4h42.8v8.4h-17.2v77.5Z"></path>
      <path d="M335.9,874.7h-8.5v-86h8.5v38.6h40.9v-38.6h8.4v86h-8.4v-39.2h-40.9v39.2Z"></path>
      <path d="M434,827.3h36.1v8.5h-36.1v30.6h36.1v8.3h-44.7v-86h44.7v8.4h-36.1v30.1Z"></path>
    </g>
    <g>
      <path d="M538.6,826h34.9v8.2h-34.9v29.6h34.9v8h-43.1v-83.1h43.1v8.2h-34.9v29.1Z"></path>
      <path d="M602.4,788.7h8.2l26.3,70.8,26.4-70.8h8.2l-31.3,83.1h-6.4l-31.3-83.1Z"></path>
      <path d="M709,826h34.9v8.2h-34.9v29.6h34.9v8h-43.1v-83.1h43.1v8.2h-34.9v29.1Z"></path>
      <path d="M838,861.9l-1-73.1h8.1v83.1h-9.8l-45.6-73.3.9,73.3h-8v-83.1h9.8l45.6,73.1Z"></path>
      <path d="M901.9,871.8h-8.2v-74.9h-16.6v-8.2h41.4v8.2h-16.6v74.9Z"></path>
    </g>
  </g>
  <g>
    <path d="M444,962.7v-17.7h9.6v2.4h-7v5.2h7v2.4h-7v5.4h7v2.4h-9.6Z"></path>
    <path d="M463.3,949.5c0-1.6-1-2.6-2.5-2.6s-2.4,1.1-2.4,2.4.8,2,2.6,2.5c3.8,1.2,5.3,2.7,5.3,5.7s-2.3,5.4-5.4,5.4-5.4-2.3-5.5-5.6h2.6c0,1.9,1.2,3.2,2.9,3.2s2.9-1.2,2.9-3-.6-2.1-2.5-2.8c-4.4-1.5-5.3-2.9-5.3-5.4s2.2-4.8,5-4.8,5,1.8,5.1,4.9h-2.6Z"></path>
    <path d="M470.4,962.7v-15.4h-3.4v-2.4h9.4v2.4h-3.4v15.4h-2.6Z"></path>
    <path d="M476.5,962.7v-2.9h2.5v2.9h-2.5Z"></path>
    <path d="M487.4,962.7v-2.1l7.1-7.2c1.4-1.5,1.5-2.5,1.5-3.1,0-1.8-1.2-3.4-3-3.4s-3.1,1.5-3.1,3.8v.3h-2.5v-.3c0-4,2.8-6.1,5.6-6.1s5.6,2.6,5.6,5.7-.5,3-2.5,5l-4.9,5.1h7.4v2.3h-11.1Z"></path>
    <path d="M512.2,957.3c0,3.9-3.2,5.7-5.8,5.7s-5.7-1.9-5.7-5.9v-6.6c0-3.8,2.9-5.9,5.8-5.9s5.7,2.6,5.7,5.8v7ZM509.7,950.3c0-1.8-1-3.5-3.2-3.5s-3.3,1.6-3.3,3.5v6.6c0,2,1.1,3.8,3.3,3.8s3.2-1.2,3.2-3.3v-7.1Z"></path>
    <path d="M525.5,957.3c0,3.9-3.2,5.7-5.8,5.7s-5.7-1.9-5.7-5.9v-6.6c0-3.8,2.9-5.9,5.8-5.9s5.7,2.6,5.7,5.8v7ZM523,950.3c0-1.8-1-3.5-3.2-3.5s-3.3,1.6-3.3,3.5v6.6c0,2,1.1,3.8,3.3,3.8s3.2-1.2,3.2-3.3v-7.1Z"></path>
    <path d="M529.1,962.7l6.7-15.5h-7.7v-2.3h10.3v2.3l-6.5,15.5h-2.8Z"></path>
  </g>
  <g>
    <g>
      <path class="st4" d="M303.1,349.8h-23.5c9.4,5.8,19.2,12.3,28.9,19.6,29.7,22.1,53.2,46.6,69.8,72.8,15.2,24,24.5,49.4,28,75.9,1,5.7,1.4,10.4,1.4,13.5v3.1c.1,4,.1,8,0,12l1,79.1c-24.5-15.4-47.6-32.7-67.2-51.4-31.6-30.2-56.9-64.7-75.3-102.8-10.6-21.9-17.7-42.6-22.5-60.4,0,0,40.2-9,85.2,3-9.7-9.6-38-41.7-80.2-57.9-24.3-9.3-76.1-6.5-76.1-6.5,0,0-4.1,255,296.4,375.2v-193.5c0-43.5-34.5-181.7-165.8-181.7Z"></path>
      <path class="st1" d="M679.3,349.8h23.5c-9.4,5.8-19.2,12.3-28.9,19.6-29.7,22.1-53.2,46.6-69.8,72.8-15.2,24-24.5,49.4-28,75.9-1,5.7-1.4,10.4-1.4,13.5v3.1c-.1,4-.1,8,0,12l-1,79c24.5-15.4,47.6-32.5,67.2-51.2,31.6-30.2,56.9-64.7,75.3-102.8,10.6-21.9,17.7-42.6,22.5-60.4,0,0-40.2-9-85.2,3,9.7-9.6,38-41.7,80.2-57.9,24.3-9.3,76.1-6.5,76.1-6.5,0,0,4.1,255-296.4,375.2,0,0,0-149.9,0-193.5,0-43.5,34.5-181.7,165.8-181.7Z"></path>
      <path class="st0" d="M489.2,128.4c46.9,0,85,33,85,73.7s-8,32.8-14.8,41.4l-16.3,20.7c-2.8,3.3-5.9,6.8-9.2,10.3-1.3,1.3-3,3.1-5,5.1-9.2,9.4-23.6,24.2-39,44.4-15.4-20.3-29.8-35-39-44.4-2-2-3.7-3.8-5-5.1-7.3-7.7-13.6-15.4-17.7-20.4l-1.9-2.3-2.1-2.1c-9.2-9.4-20.1-25.3-20.1-47.4,0-40.6,38.1-73.7,85-73.7M489.2,67c-80.8,0-146.3,60.4-146.3,135s14.2,66.3,37.5,90.3c5.2,6.5,12.5,15.2,20.9,24.2,16.9,18,65.1,61.3,88.6,141.1,23.5-79.8,71.7-123.2,88.6-141.1,16.9-18,29.4-35.1,29.4-35.1h-.3c17.6-22.2,27.9-49.7,27.9-79.3,0-74.6-65.5-135-146.3-135h0Z"></path>
      <path class="st2" d="M378.2,442c15.2,24,24.5,49.4,28,75.9,1,5.7,1.4,10.4,1.4,13.5v3.1c.1,4,.1,8,0,12v56.9c0,83.1,38.4,110.7,54.5,118.6,2.3.9,4.6,1.9,6.9,2.8v-193.5c0-43.5-34.5-181.7-165.8-181.7h-23.5c9.4,5.8,19.2,12.3,28.9,19.6,29.7,22.1,53.2,46.6,69.8,72.8Z"></path>
      <path class="st3" d="M604.1,442c-15.2,24-24.5,49.4-28,75.9-1,5.7-1.4,10.4-1.4,13.5v3.1c-.1,4-.1,8,0,12v56.9c0,83.1-38.4,110.7-54.5,118.6-2.3.9-4.6,1.9-6.9,2.8,0,0,0-149.9,0-193.5,0-43.5,34.5-181.7,165.8-181.7h23.5c-9.4,5.8-19.2,12.3-28.9,19.6-29.7,22.1-53.2,46.6-69.8,72.8Z"></path>
    </g>
    <g>
      <path class="st5" d="M669.5,685.8c-10.8,0-19.6,8.8-19.6,19.6s8.8,19.6,19.6,19.6,19.6-8.8,19.6-19.6-8.8-19.6-19.6-19.6ZM681.5,717.5c-3.2,3.2-7.5,5-12,5s-8.8-1.8-12-5c-3.2-3.2-5-7.5-5-12s1.8-8.8,5-12c3.2-3.2,7.5-5,12-5s8.8,1.8,12,5c3.2,3.2,5,7.5,5,12s-1.8,8.8-5,12Z"></path>
      <path class="st5" d="M662.6,715.5v-20.1h7.2c2.2,0,3.9.6,5.2,1.7,1.3,1.1,1.9,2.7,1.9,4.7s-.4,2.7-1.1,3.7c-.7,1-1.8,1.7-3,2.2l4.7,7.8h-3.9l-4.3-7.1h-3.4v7.1h-3.3ZM665.9,705.4h3.8c1.2,0,2.1-.3,2.8-.9.7-.6,1-1.5,1-2.7s-.3-2-1-2.6c-.7-.6-1.6-.9-2.9-.9h-3.7v7Z"></path>
    </g>
  </g>
  <g>
    <g>
      <path d="M95.9,921.5v-17.9h6.2c5.4,0,8.8,4.3,8.8,9s-3.5,9-9.1,9h-5.8ZM101.7,919.1c4.1,0,6.6-2.4,6.6-6.5s-2.8-6.6-6.5-6.6h-3.2v13.1h3.1Z"></path>
      <path d="M113.7,921.5v-17.9h9.7v2.4h-7.1v5.3h7.1v2.4h-7.1v5.5h7.1v2.4h-9.7Z"></path>
      <path d="M133.2,908.2c0-1.6-1-2.6-2.5-2.6s-2.4,1.1-2.4,2.4.8,2,2.6,2.5c3.9,1.2,5.3,2.7,5.3,5.8s-2.3,5.4-5.5,5.4-5.5-2.3-5.5-5.6h2.6c0,1.9,1.2,3.2,2.9,3.2s2.9-1.3,2.9-3-.6-2.1-2.5-2.8c-4.4-1.5-5.4-3-5.4-5.5s2.3-4.9,5-4.9,5.1,1.9,5.1,5h-2.6Z"></path>
      <path d="M138.6,921.5v-17.9h2.6v17.9h-2.6Z"></path>
      <path d="M151.1,915v-2.4h11.3c-.2,6-4.7,9.3-9.5,9.3s-9-4.2-9-9.1,4.5-9.6,9-9.6,6.4,1.6,8.2,4.8h-3.1c-1.5-1.7-3.1-2.4-5-2.4-3.5,0-6.5,3.3-6.5,6.8s3,7,6.6,7,5.1-1.6,6.3-4.5h-8.4Z"></path>
      <path d="M176.5,921.5l-8.9-13.9h0v13.9h-2.6v-17.9h2.9l8.7,13.6h0v-13.6h2.6v17.9h-2.7Z"></path>
    </g>
    <g>
      <path d="M321.4,921.5v-17.9h9.1v2.4h-6.4v5.4h6.4v2.4h-6.4v7.8h-2.6Z"></path>
      <path d="M333.4,921.5v-17.9h2.6v15.5h6.2v2.4h-8.8Z"></path>
      <path d="M352.4,921.8c-5,0-9.2-4.3-9.2-9.1s4.2-9.5,9.3-9.5,9.4,4.2,9.4,9.2-4.2,9.4-9.5,9.4ZM359.2,912.6c0-3.7-2.8-7-6.6-7s-6.8,4.2-6.8,6.8,2.6,7,6.7,7,6.7-3.6,6.7-6.9Z"></path>
      <path d="M372.9,921.5l-5.9-8.3h0v8.3h-2.6v-17.9h5.7c4.3,0,6.2,2.3,6.2,6s-2.6,5.2-5.1,5.3l5,6.7h-3.3ZM368.9,912.8c3.1,0,4.8-1.2,4.8-3.5s-1.6-3.3-4-3.3h-2.8v6.9h1.9Z"></path>
      <path d="M390.7,921.5l-2-5.3h-6.4l-2,5.3h-2.8l6.8-17.9h2.4l6.8,17.9h-2.8ZM385.5,906.9h0l-2.3,6.9h4.6l-2.3-6.9Z"></path>
      <path d="M395.6,921.5v-17.9h2.6v15.5h6.2v2.4h-8.8Z"></path>
    </g>
    <g>
      <path d="M434.7,921.5v-17.9h6.2c5.4,0,8.8,4.3,8.8,9s-3.5,9-9.1,9h-5.8ZM440.4,919.1c4.1,0,6.6-2.4,6.6-6.5s-2.8-6.6-6.5-6.6h-3.2v13.1h3.1Z"></path>
      <path d="M452.7,921.5v-17.9h2.6v17.9h-2.6Z"></path>
      <path d="M465.5,908.2c0-1.6-1-2.6-2.5-2.6s-2.4,1.1-2.4,2.4.8,2,2.6,2.5c3.9,1.2,5.3,2.7,5.3,5.8s-2.3,5.4-5.5,5.4-5.5-2.3-5.5-5.6h2.6c0,1.9,1.2,3.2,2.9,3.2s2.9-1.3,2.9-3-.6-2.1-2.5-2.8c-4.4-1.5-5.4-3-5.4-5.5s2.3-4.9,5-4.9,5.1,1.9,5.1,5h-2.6Z"></path>
      <path d="M470.7,921.5v-17.9h5.2c3.9,0,6.3,1.9,6.3,5.4s-2.4,5.4-6.3,5.4h-2.6v7.1h-2.6ZM475.9,912c2.3,0,3.7-1.1,3.7-3s-1.4-3-3.7-3h-2.6v6.1h2.6Z"></path>
      <path d="M484.6,921.5v-17.9h2.6v15.5h6.2v2.4h-8.8Z"></path>
      <path d="M507.6,921.5l-2-5.3h-6.4l-2,5.3h-2.8l6.8-17.9h2.4l6.8,17.9h-2.8ZM502.4,906.9h0l-2.3,6.9h4.6l-2.3-6.9Z"></path>
      <path d="M514.6,921.5v-6.5l-5.6-11.5h2.9l4,8.4,3.9-8.4h2.9l-5.5,11.5v6.5h-2.6Z"></path>
    </g>
    <g>
      <path d="M209.4,921.5v-17.9h6.2c5.4,0,8.8,4.3,8.8,9s-3.5,9-9.1,9h-5.8ZM215.2,919.1c4.1,0,6.6-2.4,6.6-6.5s-2.8-6.6-6.5-6.6h-3.2v13.1h3.1Z"></path>
      <path d="M227.2,921.5v-17.9h9.7v2.4h-7.1v5.3h7.1v2.4h-7.1v5.5h7.1v2.4h-9.7Z"></path>
      <path d="M256.5,917.1c-1.8,3.1-4.7,4.8-8.3,4.8s-9.1-4.5-9.1-9.2,4.3-9.4,9.1-9.4,6.6,1.6,8.4,4.9h-3.2c-1.4-1.6-2.9-2.5-5-2.5-3.8,0-6.7,3.2-6.7,6.7s2.8,7.1,6.5,7.1,3.5-.7,5-2.4h3.2Z"></path>
      <path d="M267.3,921.8c-5,0-9.2-4.3-9.2-9.1s4.2-9.5,9.3-9.5,9.4,4.2,9.4,9.2-4.2,9.4-9.5,9.4ZM274.1,912.6c0-3.7-2.8-7-6.6-7s-6.8,4.2-6.8,6.8,2.6,7,6.7,7,6.7-3.6,6.7-6.9Z"></path>
      <path d="M287.8,921.5l-5.9-8.3h0v8.3h-2.6v-17.9h5.7c4.3,0,6.2,2.3,6.2,6s-2.6,5.2-5.1,5.3l5,6.7h-3.3ZM283.8,912.8c3.1,0,4.8-1.2,4.8-3.5s-1.6-3.3-4-3.3h-2.8v6.9h1.9Z"></path>
      <polygon points="232.9 901.8 230.3 901.8 234.1 898.3 236.7 898.3 232.9 901.8"></polygon>
    </g>
    <g>
      <path d="M552.9,921.5v-17.9h9.7v2.4h-7.1v5.3h7.1v2.4h-7.1v5.5h7.1v2.4h-9.7Z"></path>
      <path d="M571.5,921.5l-7.2-17.9h2.8l5.2,13.5,5.2-13.5h2.8l-7.2,17.9h-1.6Z"></path>
      <path d="M582.1,921.5v-17.9h9.7v2.4h-7.1v5.3h7.1v2.4h-7.1v5.5h7.1v2.4h-9.7Z"></path>
      <path d="M606.5,921.5l-8.9-13.9h0v13.9h-2.6v-17.9h2.9l8.7,13.6h0v-13.6h2.6v17.9h-2.7Z"></path>
      <path d="M614.6,921.5v-15.5h-3.4v-2.4h9.5v2.4h-3.4v15.5h-2.6Z"></path>
      <path d="M629.6,921.5v-17.9h5.2c3.9,0,6.3,1.9,6.3,5.4s-2.4,5.4-6.3,5.4h-2.6v7.1h-2.6ZM634.8,912c2.3,0,3.7-1.1,3.7-3s-1.4-3-3.7-3h-2.6v6.1h2.6Z"></path>
      <path d="M651.7,921.5l-5.9-8.3h0v8.3h-2.6v-17.9h5.7c4.3,0,6.2,2.3,6.2,6s-2.6,5.2-5.1,5.3l5,6.7h-3.3ZM647.7,912.8c3.1,0,4.8-1.2,4.8-3.5s-1.6-3.3-4-3.3h-2.8v6.9h1.9Z"></path>
      <path d="M666.1,921.8c-5,0-9.2-4.3-9.2-9.1s4.2-9.5,9.3-9.5,9.4,4.2,9.4,9.2-4.2,9.4-9.5,9.4ZM673,912.6c0-3.7-2.8-7-6.6-7s-6.8,4.2-6.8,6.8,2.6,7,6.7,7,6.7-3.6,6.7-6.9Z"></path>
      <path d="M678.1,921.5v-17.9h6.2c5.4,0,8.8,4.3,8.8,9s-3.5,9-9.1,9h-5.8ZM683.8,919.1c4.1,0,6.6-2.4,6.6-6.5s-2.8-6.6-6.5-6.6h-3.2v13.1h3.1Z"></path>
      <path d="M705.4,903.6h2.6v12.3c0,3.8-2.6,6-6,6s-6-2.3-6-6v-12.3h2.6v12.1c0,2.2,1.3,3.8,3.4,3.8s3.4-1.6,3.4-3.8v-12.1Z"></path>
      <path d="M728.1,917.1c-1.8,3.1-4.7,4.8-8.3,4.8s-9.1-4.5-9.1-9.2,4.3-9.4,9.1-9.4,6.6,1.6,8.4,4.9h-3.2c-1.4-1.6-2.9-2.5-5-2.5-3.8,0-6.7,3.2-6.7,6.7s2.8,7.1,6.5,7.1,3.5-.7,5-2.4h3.2Z"></path>
      <path d="M732.4,921.5v-15.5h-3.4v-2.4h9.5v2.4h-3.4v15.5h-2.6Z"></path>
      <path d="M740.5,921.5v-17.9h2.6v17.9h-2.6Z"></path>
      <path d="M755,921.8c-5,0-9.2-4.3-9.2-9.1s4.2-9.5,9.3-9.5,9.4,4.2,9.4,9.2-4.2,9.4-9.5,9.4ZM761.8,912.6c0-3.7-2.8-7-6.6-7s-6.8,4.2-6.8,6.8,2.6,7,6.7,7,6.7-3.6,6.7-6.9Z"></path>
      <path d="M778.7,921.5l-8.9-13.9h0v13.9h-2.6v-17.9h2.9l8.7,13.6h0v-13.6h2.6v17.9h-2.7Z"></path>
      <path d="M795.1,921.5v-4.9h-4.9v-2.5h4.9v-4.9h2.5v4.9h4.9v2.5h-4.9v4.9h-2.5Z"></path>
      <path d="M821,921.5l-5.9-8.3h0v8.3h-2.6v-18h5.8c4.3,0,6.2,2.3,6.2,6s-2.6,5.2-5.2,5.3l5,6.7h-3.3ZM817,912.8c3.1,0,4.8-1.2,4.8-3.5s-1.7-3.4-4-3.4h-2.8v6.9h1.9Z"></path>
      <path d="M826.8,921.5v-18h9.7v2.4h-7.1v5.3h7.1v2.4h-7.1v5.5h7.1v2.4h-9.7Z"></path>
      <path d="M851.3,921.5l-8.9-13.9h0v13.9h-2.6v-18h2.9l8.8,13.7h0v-13.7h2.6v18h-2.7Z"></path>
      <path d="M859.5,921.5v-15.6h-3.5v-2.4h9.5v2.4h-3.5v15.6h-2.6Z"></path>
      <path d="M878.7,921.5l-2-5.3h-6.5l-2,5.3h-2.8l6.8-18h2.4l6.8,18h-2.8ZM873.5,906.9h0l-2.3,6.9h4.6l-2.3-6.9Z"></path>
      <path d="M883.7,921.5v-18h2.6v15.6h6.2v2.4h-8.9Z"></path>
      <path d="M901.1,908.2c0-1.6-1-2.6-2.5-2.6s-2.4,1.1-2.4,2.5.9,2,2.6,2.6c3.9,1.2,5.3,2.7,5.3,5.8s-2.3,5.4-5.5,5.4-5.5-2.3-5.5-5.7h2.6c0,1.9,1.2,3.3,2.9,3.3s2.9-1.3,2.9-3-.6-2.1-2.5-2.8c-4.4-1.5-5.4-3-5.4-5.5s2.3-4.9,5-4.9,5.1,1.9,5.2,5h-2.6Z"></path>
    </g>
  </g>
</svg>